<?xml version="1.0" encoding="utf-8"?>
<svg version="1.1" xmlns:xlink="http://www.w3.org/1999/xlink" width="14px" height="9px" xmlns="http://www.w3.org/2000/svg">
  <g transform="matrix(1 0 0 1 -1712 -27 )">
    <path d="M 13.8597194388778 0.927835051546391  C 13.9532398129593 1.03092783505154  14 1.14948453608247  14 1.28350515463918  C 14 1.41752577319588  13.9532398129593 1.5360824742268  13.8597194388778 1.63917525773196  L 7.32264529058116 8.84536082474227  C 7.22912491649967 8.94845360824742  7.12157648630595 9  7 9  C 6.87842351369406 9  6.77087508350033 8.94845360824742  6.67735470941884 8.84536082474227  L 0.140280561122244 1.63917525773196  C 0.0467601870407483 1.5360824742268  0 1.41752577319588  0 1.28350515463918  C 0 1.14948453608247  0.0467601870407483 1.03092783505154  0.140280561122244 0.927835051546391  L 0.841683366733467 0.154639175257732  C 0.935203740814964 0.0515463917525761  1.04275217100868 0  1.16432865731463 0  C 1.28590514362057 0  1.3934535738143 0.0515463917525761  1.48697394789579 0.154639175257732  L 7 6.2319587628866  L 12.5130260521042 0.154639175257732  C 12.6065464261857 0.0515463917525761  12.7140948563794 0  12.8356713426854 0  C 12.9572478289913 0  13.064796259185 0.0515463917525761  13.1583166332665 0.154639175257732  L 13.8597194388778 0.927835051546391  Z " fill-rule="nonzero" fill="#333333" stroke="none" transform="matrix(1 0 0 1 1712 27 )" />
  </g>
</svg>