<?xml version="1.0" encoding="utf-8"?>
<svg version="1.1" xmlns:xlink="http://www.w3.org/1999/xlink" width="158px" height="43px" xmlns="http://www.w3.org/2000/svg">
  <g transform="matrix(1 0 0 1 109 47 )">
    <path d="M -108.5 -22.1871118012422  C -108.5 -22.1871118012422  -108.5 -42  -108.5 -42  C -108.5 -44.4852813742386  -106.485281374239 -46.5  -104 -46.5  C -104 -46.5  44 -46.5  44 -46.5  C 46.4852813742386 -46.5  48.5 -44.4852813742386  48.5 -42  C 48.5 -42  48.5 -22.1871118012422  48.5 -22.1871118012422  C 48.5 -19.7018304270037  46.4852813742386 -17.6871118012422  44 -17.6871118012422  C 44 -17.6871118012422  -19.0200232257147 -17.6871118012422  -19.0200232257147 -17.6871118012422  C -19.0200232257147 -17.6871118012422  -29.597380244433 -5.84333026291481  -29.597380244433 -5.84333026291481  C -29.597380244433 -5.84333026291481  -38.5473195152419 -17.6871118012422  -38.5473195152419 -17.6871118012422  C -38.5473195152419 -17.6871118012422  -104 -17.6871118012422  -104 -17.6871118012422  C -106.485281374239 -17.6871118012422  -108.5 -19.7018304270037  -108.5 -22.1871118012422  Z " fill-rule="nonzero" fill="#ffffff" stroke="none" />
    <path d="M -109 -22.1871118012422  C -109 -22.1871118012422  -109 -42  -109 -42  C -109 -44.761423749154  -106.761423749154 -47  -104 -47  C -104 -47  44 -47  44 -47  C 46.761423749154 -47  49 -44.761423749154  49 -42  C 49 -42  49 -22.1871118012422  49 -22.1871118012422  C 49 -19.4256880520883  46.761423749154 -17.1871118012422  44 -17.1871118012422  C 44 -17.1871118012422  -18.7961904761905 -17.1871118012422  -18.7961904761905 -17.1871118012422  C -18.7961904761905 -17.1871118012422  -29.6295970695971 -5.05662393162404  -29.6295970695971 -5.05662393162404  C -29.6295970695971 -5.05662393162404  -38.7961904761905 -17.1871118012422  -38.7961904761905 -17.1871118012422  C -38.7961904761905 -17.1871118012422  -104 -17.1871118012422  -104 -17.1871118012422  C -106.761423749154 -17.1871118012422  -109 -19.4256880520883  -109 -22.1871118012422  Z M -108 -22.1871118012422  C -108 -19.9779728019191  -106.209138999323 -18.1871118012422  -104 -18.1871118012422  C -104 -18.1871118012422  -38.2984485542931 -18.1871118012422  -38.2984485542931 -18.1871118012422  C -38.2984485542931 -18.1871118012422  -29.565163419269 -6.63003659420558  -29.565163419269 -6.63003659420558  C -29.565163419269 -6.63003659420558  -19.243855975239 -18.1871118012422  -19.243855975239 -18.1871118012422  C -19.243855975239 -18.1871118012422  44 -18.1871118012422  44 -18.1871118012422  C 46.2091389993232 -18.1871118012422  48 -19.9779728019191  48 -22.1871118012422  C 48 -22.1871118012422  48 -42  48 -42  C 48 -44.2091389993232  46.2091389993232 -46  44 -46  C 44 -46  -104 -46  -104 -46  C -106.209138999323 -46  -108 -44.2091389993232  -108 -42  C -108 -42  -108 -22.1871118012422  -108 -22.1871118012422  Z " fill-rule="nonzero" fill="#d7d7d7" stroke="none" />
  </g>
</svg>