<?xml version="1.0" encoding="utf-8"?>
<svg version="1.1" xmlns:xlink="http://www.w3.org/1999/xlink" width="40px" height="50px" xmlns="http://www.w3.org/2000/svg">
  <defs>
    <filter x="696px" y="142px" width="40px" height="50px" filterUnits="userSpaceOnUse" id="filter73">
      <feOffset dx="1" dy="1" in="SourceAlpha" result="shadowOffsetInner" />
      <feGaussianBlur stdDeviation="2.5" in="shadowOffsetInner" result="shadowGaussian" />
      <feComposite in2="shadowGaussian" operator="atop" in="SourceAlpha" result="shadowComposite" />
      <feColorMatrix type="matrix" values="0 0 0 0 0  0 0 0 0 0  0 0 0 0 0  0 0 0 0.698039215686274 0  " in="shadowComposite" />
    </filter>
    <g id="widget74">
      <path d="M 715 185.036928468354  C 709.2 175.40734059591  700.5 169.629587872444  700.5 160  C 700.5 154.985714285714  703.4 146.5  715 146.5  C 726.6 146.5  729.5 154.985714285714  729.5 160  C 729.5 169.629587872444  720.8 175.40734059591  715 185.036928468354  Z " fill-rule="nonzero" fill="#009dd9" stroke="none" />
      <path d="M 715 186  C 709 176  700 170  700 160  C 700 154.8  703 146  715 146  C 727 146  730 154.8  730 160  C 730 170  721 176  715 186  Z M 715 184.073856936707  C 720.6 174.81468119182  729 169.259175744887  729 160  C 729 155.171428571429  726.2 147  715 147  C 703.8 147  701 155.171428571429  701 160  C 701 169.259175744887  709.4 174.81468119182  715 184.073856936707  Z " fill-rule="nonzero" fill="#ffffff" stroke="none" />
    </g>
  </defs>
  <g transform="matrix(1 0 0 1 -696 -142 )">
    <use xlink:href="#widget74" filter="url(#filter73)" />
    <use xlink:href="#widget74" />
  </g>
</svg>