<?xml version="1.0" encoding="utf-8"?>
<svg version="1.1" xmlns:xlink="http://www.w3.org/1999/xlink" width="17px" height="17px" xmlns="http://www.w3.org/2000/svg">
  <g transform="matrix(1 0 0 1 -115 -66 )">
    <path d="M 16.8197544642857 8.07310267857143  C 16.9399181547619 8.19326636904762  17 8.33556547619048  17 8.5  C 17 8.66443452380952  16.9399181547619 8.80673363095238  16.8197544642857 8.92689732142857  L 14.3911830357143 11.35546875  C 14.2710193452381 11.4756324404762  14.1287202380952 11.5357142857143  13.9642857142857 11.5357142857143  C 13.7998511904762 11.5357142857143  13.6575520833333 11.4756324404762  13.5373883928571 11.35546875  C 13.417224702381 11.2353050595238  13.3571428571429 11.093005952381  13.3571428571429 10.9285714285714  L 13.3571428571429 9.71428571428571  L 9.71428571428571 9.71428571428571  L 9.71428571428571 13.3571428571429  L 10.9285714285714 13.3571428571429  C 11.093005952381 13.3571428571429  11.2353050595238 13.417224702381  11.35546875 13.5373883928571  C 11.4756324404762 13.6575520833333  11.5357142857143 13.7998511904762  11.5357142857143 13.9642857142857  C 11.5357142857143 14.1287202380952  11.4756324404762 14.2710193452381  11.35546875 14.3911830357143  L 8.92689732142857 16.8197544642857  C 8.80673363095238 16.9399181547619  8.66443452380952 17  8.5 17  C 8.33556547619048 17  8.19326636904762 16.9399181547619  8.07310267857143 16.8197544642857  L 5.64453125 14.3911830357143  C 5.52436755952381 14.2710193452381  5.46428571428571 14.1287202380952  5.46428571428571 13.9642857142857  C 5.46428571428571 13.7998511904762  5.52436755952381 13.6575520833333  5.64453125 13.5373883928571  C 5.76469494047619 13.417224702381  5.90699404761905 13.3571428571429  6.07142857142857 13.3571428571429  L 7.28571428571429 13.3571428571429  L 7.28571428571429 9.71428571428571  L 3.64285714285714 9.71428571428571  L 3.64285714285714 10.9285714285714  C 3.64285714285714 11.093005952381  3.58277529761905 11.2353050595238  3.46261160714286 11.35546875  C 3.34244791666667 11.4756324404762  3.20014880952381 11.5357142857143  3.03571428571429 11.5357142857143  C 2.87127976190476 11.5357142857143  2.7289806547619 11.4756324404762  2.60881696428571 11.35546875  L 0.180245535714286 8.92689732142857  C 0.0600818452380952 8.80673363095238  0 8.66443452380952  0 8.5  C 0 8.33556547619048  0.0600818452380952 8.19326636904762  0.180245535714286 8.07310267857143  L 2.60881696428571 5.64453125  C 2.7289806547619 5.52436755952381  2.87127976190476 5.46428571428571  3.03571428571429 5.46428571428571  C 3.20014880952381 5.46428571428571  3.34244791666667 5.52436755952381  3.46261160714286 5.64453125  C 3.58277529761905 5.76469494047619  3.64285714285714 5.90699404761905  3.64285714285714 6.07142857142857  L 3.64285714285714 7.28571428571429  L 7.28571428571429 7.28571428571429  L 7.28571428571429 3.64285714285714  L 6.07142857142857 3.64285714285714  C 5.90699404761905 3.64285714285714  5.76469494047619 3.58277529761905  5.64453125 3.46261160714286  C 5.52436755952381 3.34244791666667  5.46428571428571 3.20014880952381  5.46428571428571 3.03571428571429  C 5.46428571428571 2.87127976190476  5.52436755952381 2.7289806547619  5.64453125 2.60881696428571  L 8.07310267857143 0.180245535714286  C 8.19326636904762 0.0600818452380967  8.33556547619048 0  8.5 0  C 8.66443452380952 0  8.80673363095238 0.0600818452380967  8.92689732142857 0.180245535714286  L 11.35546875 2.60881696428571  C 11.4756324404762 2.7289806547619  11.5357142857143 2.87127976190476  11.5357142857143 3.03571428571429  C 11.5357142857143 3.20014880952381  11.4756324404762 3.34244791666667  11.35546875 3.46261160714286  C 11.2353050595238 3.58277529761905  11.093005952381 3.64285714285714  10.9285714285714 3.64285714285714  L 9.71428571428571 3.64285714285714  L 9.71428571428571 7.28571428571429  L 13.3571428571429 7.28571428571429  L 13.3571428571429 6.07142857142857  C 13.3571428571429 5.90699404761905  13.417224702381 5.76469494047619  13.5373883928571 5.64453125  C 13.6575520833333 5.52436755952381  13.7998511904762 5.46428571428571  13.9642857142857 5.46428571428571  C 14.1287202380952 5.46428571428571  14.2710193452381 5.52436755952381  14.3911830357143 5.64453125  L 16.8197544642857 8.07310267857143  Z " fill-rule="nonzero" fill="#000000" stroke="none" fill-opacity="0.349019607843137" transform="matrix(1 0 0 1 115 66 )" />
  </g>
</svg>