<?xml version="1.0" encoding="utf-8"?>
<svg version="1.1" xmlns:xlink="http://www.w3.org/1999/xlink" width="103px" height="40px" xmlns="http://www.w3.org/2000/svg">
  <g>
    <path d="M 1 4  A 3 3 0 0 1 4 1 L 99 1  A 3 3 0 0 1 102 4 L 102 36  A 3 3 0 0 1 99 39 L 4 39  A 3 3 0 0 1 1 36 L 1 4  Z " fill-rule="nonzero" fill="#ffffff" stroke="none" />
    <path d="M 0.5 4  A 3.5 3.5 0 0 1 4 0.5 L 99 0.5  A 3.5 3.5 0 0 1 102.5 4 L 102.5 36  A 3.5 3.5 0 0 1 99 39.5 L 4 39.5  A 3.5 3.5 0 0 1 0.5 36 L 0.5 4  Z " stroke-width="1" stroke="#000000" fill="none" stroke-opacity="0.349019607843137" />
  </g>
</svg>