<?xml version="1.0" encoding="utf-8"?>
<svg version="1.1" xmlns:xlink="http://www.w3.org/1999/xlink" width="15px" height="9px" xmlns="http://www.w3.org/2000/svg">
  <g transform="matrix(1 0 0 1 -1712 -15 )">
    <path d="M 14.8496993987976 7.36082474226804  C 14.9498997995992 7.46391752577319  15 7.58247422680412  15 7.71649484536083  C 15 7.85051546391752  14.9498997995992 7.96907216494845  14.8496993987976 8.07216494845361  L 14.0981963927856 8.84536082474227  C 13.997995991984 8.94845360824742  13.8827655310621 9  13.75250501002 9  C 13.622244488978 9  13.5070140280561 8.94845360824742  13.4068136272545 8.84536082474227  L 7.5 2.7680412371134  L 1.59318637274549 8.84536082474227  C 1.49298597194389 8.94845360824742  1.37775551102204 9  1.24749498997996 9  C 1.11723446893788 9  1.00200400801603 8.94845360824742  0.901803607214429 8.84536082474227  L 0.150300601202405 8.07216494845361  C 0.0501002004008018 7.96907216494845  0 7.85051546391752  0 7.71649484536083  C 0 7.58247422680412  0.0501002004008018 7.46391752577319  0.150300601202405 7.36082474226804  L 7.15430861723447 0.154639175257732  C 7.25450901803607 0.0515463917525761  7.36973947895792 0  7.5 0  C 7.63026052104208 0  7.74549098196393 0.0515463917525761  7.84569138276553 0.154639175257732  L 14.8496993987976 7.36082474226804  Z " fill-rule="nonzero" fill="#8c8c8c" stroke="none" transform="matrix(1 0 0 1 1712 15 )" />
  </g>
</svg>