<?xml version="1.0" encoding="utf-8"?>
<svg version="1.1" xmlns:xlink="http://www.w3.org/1999/xlink" width="9px" height="4px" xmlns="http://www.w3.org/2000/svg">
  <g transform="matrix(1 0 0 1 -292 -164 )">
    <path d="M 8.8330078125 3.24305555555556  C 8.9443359375 3.33101851851852  9 3.43518518518518  9 3.55555555555556  C 9 3.67592592592593  8.9443359375 3.78009259259259  8.8330078125 3.86805555555556  C 8.7216796875 3.95601851851852  8.58984375 4  8.4375 4  L 0.5625 4  C 0.41015625 4  0.2783203125 3.95601851851852  0.1669921875 3.86805555555556  C 0.0556640625 3.78009259259259  0 3.67592592592593  0 3.55555555555556  C 0 3.43518518518518  0.0556640625 3.33101851851852  0.1669921875 3.24305555555556  L 4.1044921875 0.131944444444445  C 4.2158203125 0.043981481481481  4.34765625 0  4.5 0  C 4.65234375 0  4.7841796875 0.043981481481481  4.8955078125 0.131944444444445  L 8.8330078125 3.24305555555556  Z " fill-rule="nonzero" fill="#d7d7d7" stroke="none" transform="matrix(1 0 0 1 292 164 )" />
  </g>
</svg>