<?xml version="1.0" encoding="utf-8"?>
<svg version="1.1" xmlns:xlink="http://www.w3.org/1999/xlink" width="9px" height="4px" xmlns="http://www.w3.org/2000/svg">
  <g transform="matrix(1 0 0 1 -292 -169 )">
    <path d="M 8.8330078125 0.131944444444445  C 8.9443359375 0.219907407407407  9 0.324074074074073  9 0.444444444444445  C 9 0.564814814814814  8.9443359375 0.668981481481481  8.8330078125 0.756944444444445  L 4.8955078125 3.86805555555556  C 4.7841796875 3.95601851851852  4.65234375 4  4.5 4  C 4.34765625 4  4.2158203125 3.95601851851852  4.1044921875 3.86805555555556  L 0.1669921875 0.756944444444445  C 0.0556640625 0.668981481481481  0 0.564814814814814  0 0.444444444444445  C 0 0.324074074074073  0.0556640625 0.219907407407407  0.1669921875 0.131944444444445  C 0.2783203125 0.043981481481481  0.41015625 0  0.5625 0  L 8.4375 0  C 8.58984375 0  8.7216796875 0.043981481481481  8.8330078125 0.131944444444445  Z " fill-rule="nonzero" fill="#169bd5" stroke="none" transform="matrix(1 0 0 1 292 169 )" />
  </g>
</svg>