<?xml version="1.0" encoding="utf-8"?>
<svg version="1.1" xmlns:xlink="http://www.w3.org/1999/xlink" width="8px" height="4px" xmlns="http://www.w3.org/2000/svg">
  <g transform="matrix(1 0 0 1 -2048 -164 )">
    <path d="M 7.8515625 3.24305555555556  C 7.95052083333333 3.33101851851852  8 3.43518518518518  8 3.55555555555556  C 8 3.67592592592593  7.95052083333333 3.78009259259259  7.8515625 3.86805555555556  C 7.75260416666667 3.95601851851852  7.63541666666667 4  7.5 4  L 0.5 4  C 0.364583333333333 4  0.247395833333333 3.95601851851852  0.1484375 3.86805555555556  C 0.0494791666666667 3.78009259259259  0 3.67592592592593  0 3.55555555555556  C 0 3.43518518518518  0.0494791666666667 3.33101851851852  0.1484375 3.24305555555556  L 3.6484375 0.131944444444445  C 3.74739583333333 0.043981481481481  3.86458333333333 0  4 0  C 4.13541666666667 0  4.25260416666667 0.043981481481481  4.3515625 0.131944444444445  L 7.8515625 3.24305555555556  Z " fill-rule="nonzero" fill="#d7d7d7" stroke="none" transform="matrix(1 0 0 1 2048 164 )" />
  </g>
</svg>