<?xml version="1.0" encoding="utf-8"?>
<svg version="1.1" xmlns:xlink="http://www.w3.org/1999/xlink" width="8px" height="4px" xmlns="http://www.w3.org/2000/svg">
  <g transform="matrix(1 0 0 1 -2048 -169 )">
    <path d="M 7.8515625 0.131944444444445  C 7.95052083333333 0.219907407407407  8 0.324074074074073  8 0.444444444444445  C 8 0.564814814814814  7.95052083333333 0.668981481481481  7.8515625 0.756944444444445  L 4.3515625 3.86805555555556  C 4.25260416666667 3.95601851851852  4.13541666666667 4  4 4  C 3.86458333333333 4  3.74739583333333 3.95601851851852  3.6484375 3.86805555555556  L 0.1484375 0.756944444444445  C 0.0494791666666667 0.668981481481481  0 0.564814814814814  0 0.444444444444445  C 0 0.324074074074073  0.0494791666666667 0.219907407407407  0.1484375 0.131944444444445  C 0.247395833333333 0.043981481481481  0.364583333333333 0  0.5 0  L 7.5 0  C 7.63541666666667 0  7.75260416666667 0.043981481481481  7.8515625 0.131944444444445  Z " fill-rule="nonzero" fill="#169bd5" stroke="none" transform="matrix(1 0 0 1 2048 169 )" />
  </g>
</svg>