<?xml version="1.0" encoding="utf-8"?>
<svg version="1.1" xmlns:xlink="http://www.w3.org/1999/xlink" width="23px" height="23px" xmlns="http://www.w3.org/2000/svg">
  <g transform="matrix(1 0 0 1 -33 0 )">
    <path d="M 44.5 0  C 50.94 0  56 5.06  56 11.5  C 56 17.94  50.94 23  44.5 23  C 38.06 23  33 17.94  33 11.5  C 33 5.06  38.06 0  44.5 0  Z " fill-rule="nonzero" fill="#ffffff" stroke="none" />
    <path d="M 44.5 0.5  C 50.66 0.5  55.5 5.34  55.5 11.5  C 55.5 17.66  50.66 22.5  44.5 22.5  C 38.34 22.5  33.5 17.66  33.5 11.5  C 33.5 5.34  38.34 0.5  44.5 0.5  Z " stroke-width="1" stroke="#169bd5" fill="none" />
  </g>
</svg>