<?xml version="1.0" encoding="utf-8"?>
<svg version="1.1" xmlns:xlink="http://www.w3.org/1999/xlink" width="23px" height="23px" xmlns="http://www.w3.org/2000/svg">
  <g transform="matrix(1 0 0 1 -10 0 )">
    <path d="M 21.5 0  C 27.94 0  33 5.06  33 11.5  C 33 17.94  27.94 23  21.5 23  C 15.06 23  10 17.94  10 11.5  C 10 5.06  15.06 0  21.5 0  Z " fill-rule="nonzero" fill="#ffffff" stroke="none" />
    <path d="M 21.5 0.5  C 27.66 0.5  32.5 5.34  32.5 11.5  C 32.5 17.66  27.66 22.5  21.5 22.5  C 15.34 22.5  10.5 17.66  10.5 11.5  C 10.5 5.34  15.34 0.5  21.5 0.5  Z " stroke-width="1" stroke="#8c8c8c" fill="none" />
  </g>
</svg>